<svg xmlns="http://www.w3.org/2000/svg" xmlns:xlink="http://www.w3.org/1999/xlink" width="500" zoomAndPan="magnify" viewBox="0 0 375 374.999991" height="500" preserveAspectRatio="xMidYMid meet" version="1.0"><defs><g/><clipPath id="4b20dee50a"><rect x="0" width="204" y="0" height="38"/></clipPath><clipPath id="88cc2fa99f"><rect x="0" width="112" y="0" height="32"/></clipPath><clipPath id="75ba037a6b"><rect x="0" width="313" y="0" height="101"/></clipPath></defs><g transform="matrix(1, 0, 0, 1, 88, 208)"><g clip-path="url(#4b20dee50a)"><g fill="#ffffff" fill-opacity="1"><g transform="translate(1.235281, 27.730655)"><g><path d="M 8.046875 0 L 2.890625 0 L 2.890625 -25.78125 L 8.046875 -25.78125 Z M 8.046875 0 "/></g></g></g><g fill="#ffffff" fill-opacity="1"><g transform="translate(17.135254, 27.730655)"><g><path d="M 8.046875 -14.03125 L 8.046875 0 L 2.890625 0 L 2.890625 -26.328125 L 4.25 -26.328125 L 17.28125 -11.171875 L 17.28125 -25.75 L 22.46875 -25.75 L 22.46875 0.546875 L 21.09375 0.546875 Z M 8.046875 -14.03125 "/></g></g></g><g fill="#ffffff" fill-opacity="1"><g transform="translate(47.454291, 27.730655)"><g><path d="M 1.6875 -1.65625 L 2.34375 -7.0625 C 3.332031 -6.363281 4.3125 -5.863281 5.28125 -5.5625 C 6.257812 -5.269531 7.144531 -5.097656 7.9375 -5.046875 C 8.726562 -5.003906 9.316406 -4.992188 9.703125 -5.015625 C 10.472656 -5.054688 11.128906 -5.320312 11.671875 -5.8125 C 12.210938 -6.3125 12.445312 -6.910156 12.375 -7.609375 C 12.320312 -8.359375 12.039062 -8.921875 11.53125 -9.296875 C 11.03125 -9.679688 10.421875 -9.992188 9.703125 -10.234375 C 8.359375 -10.742188 7.101562 -11.328125 5.9375 -11.984375 C 4.769531 -12.648438 3.832031 -13.472656 3.125 -14.453125 C 2.414062 -15.441406 2.0625 -16.660156 2.0625 -18.109375 C 2.0625 -19.546875 2.363281 -20.847656 2.96875 -22.015625 C 3.582031 -23.179688 4.441406 -24.113281 5.546875 -24.8125 C 6.660156 -25.507812 7.925781 -25.894531 9.34375 -25.96875 C 10.007812 -26.007812 10.828125 -25.984375 11.796875 -25.890625 C 12.773438 -25.796875 14.097656 -25.460938 15.765625 -24.890625 L 15.109375 -19.90625 C 13.691406 -20.476562 12.5625 -20.804688 11.71875 -20.890625 C 10.875 -20.984375 10.25 -21.015625 9.84375 -20.984375 C 8.925781 -20.941406 8.257812 -20.628906 7.84375 -20.046875 C 7.425781 -19.472656 7.238281 -18.828125 7.28125 -18.109375 C 7.351562 -17.378906 7.664062 -16.828125 8.21875 -16.453125 C 8.769531 -16.085938 9.421875 -15.769531 10.171875 -15.5 C 11.515625 -15.019531 12.75 -14.425781 13.875 -13.71875 C 15.007812 -13.007812 15.921875 -12.15625 16.609375 -11.15625 C 17.296875 -10.164062 17.640625 -8.984375 17.640625 -7.609375 C 17.640625 -6.191406 17.328125 -4.90625 16.703125 -3.75 C 16.078125 -2.59375 15.179688 -1.664062 14.015625 -0.96875 C 12.847656 -0.269531 11.457031 0.125 9.84375 0.21875 C 9.363281 0.238281 8.707031 0.21875 7.875 0.15625 C 7.050781 0.101562 6.109375 -0.0546875 5.046875 -0.328125 C 3.992188 -0.609375 2.875 -1.050781 1.6875 -1.65625 Z M 1.6875 -1.65625 "/></g></g></g><g fill="#ffffff" fill-opacity="1"><g transform="translate(71.464986, 27.730655)"><g><path d="M 12.296875 0 L 7.140625 0 L 7.140625 -20.625 L 0.71875 -20.625 L 0.71875 -25.75 L 18.71875 -25.75 L 18.71875 -20.625 L 12.296875 -20.625 Z M 12.296875 0 "/></g></g></g><g fill="#ffffff" fill-opacity="1"><g transform="translate(96.124537, 27.730655)"><g><path d="M 0.578125 0 L 11.4375 -26.71875 L 11.96875 -26.71875 L 22.828125 0 L 17.015625 0 L 15.96875 -2.78125 L 7.421875 -2.78125 L 6.421875 0 Z M 9.296875 -7.609375 L 14.0625 -7.609375 L 11.71875 -14.3125 Z M 9.296875 -7.609375 "/></g></g></g><g fill="#ffffff" fill-opacity="1"><g transform="translate(124.605135, 27.730655)"><g><path d="M 8.046875 -14.03125 L 8.046875 0 L 2.890625 0 L 2.890625 -26.328125 L 4.25 -26.328125 L 17.28125 -11.171875 L 17.28125 -25.75 L 22.46875 -25.75 L 22.46875 0.546875 L 21.09375 0.546875 Z M 8.046875 -14.03125 "/></g></g></g><g fill="#ffffff" fill-opacity="1"><g transform="translate(154.924172, 27.730655)"><g><path d="M 12.296875 0 L 7.140625 0 L 7.140625 -20.625 L 0.71875 -20.625 L 0.71875 -25.75 L 18.71875 -25.75 L 18.71875 -20.625 L 12.296875 -20.625 Z M 12.296875 0 "/></g></g></g><g fill="#ffffff" fill-opacity="1"><g transform="translate(179.583723, 27.730655)"><g><path d="M 16.234375 0 L 2.890625 0 L 2.890625 -25.78125 L 15.796875 -25.78125 L 15.796875 -20.625 L 8.046875 -20.625 L 8.046875 -15.46875 L 14.828125 -15.46875 L 14.828125 -10.3125 L 8.046875 -10.3125 L 8.046875 -5.15625 L 16.234375 -5.15625 Z M 16.234375 0 "/></g></g></g></g></g><g transform="matrix(1, 0, 0, 1, 132, 244)"><g clip-path="url(#88cc2fa99f)"><g fill="#ffffff" fill-opacity="1"><g transform="translate(1.651915, 22.159501)"><g><path d="M 18.984375 -11.328125 C 19.160156 -11.253906 19.304688 -11.101562 19.421875 -10.875 C 19.535156 -10.65625 19.566406 -10.46875 19.515625 -10.3125 C 19.460938 -10.164062 19.285156 -10.148438 18.984375 -10.265625 C 18.117188 -10.617188 17.207031 -10.84375 16.25 -10.9375 C 15.300781 -11.039062 14.347656 -11.082031 13.390625 -11.0625 C 12.429688 -11.039062 11.492188 -11.023438 10.578125 -11.015625 C 10.316406 -11.015625 10.050781 -11.007812 9.78125 -11 C 9.507812 -10.988281 9.242188 -10.976562 8.984375 -10.96875 C 9.109375 -10.851562 9.203125 -10.722656 9.265625 -10.578125 C 9.335938 -10.429688 9.34375 -10.304688 9.28125 -10.203125 C 8.207031 -8.097656 7.304688 -5.910156 6.578125 -3.640625 C 5.859375 -1.367188 5.347656 0.941406 5.046875 3.296875 C 5.015625 3.472656 4.929688 3.566406 4.796875 3.578125 C 4.671875 3.597656 4.523438 3.554688 4.359375 3.453125 C 4.203125 3.359375 4.066406 3.238281 3.953125 3.09375 C 3.835938 2.945312 3.785156 2.804688 3.796875 2.671875 C 4.117188 0.304688 4.632812 -2.015625 5.34375 -4.296875 C 6.050781 -6.585938 6.945312 -8.800781 8.03125 -10.9375 C 5.882812 -10.875 3.738281 -10.757812 1.59375 -10.59375 C 1.445312 -10.582031 1.300781 -10.632812 1.15625 -10.75 C 1.007812 -10.863281 0.882812 -11 0.78125 -11.15625 C 0.6875 -11.320312 0.644531 -11.46875 0.65625 -11.59375 C 0.675781 -11.726562 0.78125 -11.800781 0.96875 -11.8125 C 2.550781 -11.9375 4.132812 -12.03125 5.71875 -12.09375 C 7.3125 -12.164062 8.90625 -12.210938 10.5 -12.234375 C 11.4375 -12.242188 12.390625 -12.25 13.359375 -12.25 C 14.328125 -12.25 15.28125 -12.1875 16.21875 -12.0625 C 17.15625 -11.945312 18.078125 -11.703125 18.984375 -11.328125 Z M 18.984375 -11.328125 "/></g></g></g><g fill="#ffffff" fill-opacity="1"><g transform="translate(12.496429, 22.159501)"><g><path d="M 4.265625 -3.015625 C 4.335938 -2.890625 4.363281 -2.757812 4.34375 -2.625 C 4.320312 -2.5 4.222656 -2.429688 4.046875 -2.421875 C 3.929688 -2.421875 3.816406 -2.453125 3.703125 -2.515625 C 3.597656 -2.585938 3.5 -2.675781 3.40625 -2.78125 C 3.25 -2.78125 3.039062 -2.6875 2.78125 -2.5 C 2.519531 -2.320312 2.34375 -2.203125 2.25 -2.140625 C 2.082031 -2.015625 1.921875 -1.878906 1.765625 -1.734375 C 1.617188 -1.585938 1.46875 -1.441406 1.3125 -1.296875 C 0.65625 -0.585938 0.132812 0.179688 -0.25 1.015625 C -0.34375 1.210938 -0.492188 1.265625 -0.703125 1.171875 C -0.921875 1.078125 -1.109375 0.921875 -1.265625 0.703125 C -1.429688 0.492188 -1.484375 0.3125 -1.421875 0.15625 C -1.179688 -0.53125 -0.925781 -1.207031 -0.65625 -1.875 C -0.382812 -2.539062 -0.128906 -3.222656 0.109375 -3.921875 C 0.171875 -4.066406 0.285156 -4.117188 0.453125 -4.078125 C 0.628906 -4.046875 0.800781 -3.953125 0.96875 -3.796875 C 1.132812 -3.640625 1.25 -3.476562 1.3125 -3.3125 C 1.832031 -3.71875 2.359375 -3.9375 2.890625 -3.96875 C 3.421875 -4.007812 3.878906 -3.691406 4.265625 -3.015625 Z M 4.265625 -3.015625 "/></g></g></g><g fill="#ffffff" fill-opacity="1"><g transform="translate(18.87443, 22.159501)"><g><path d="M 4.359375 -2.859375 C 4.492188 -2.984375 4.648438 -3.007812 4.828125 -2.9375 C 5.003906 -2.863281 5.128906 -2.742188 5.203125 -2.578125 C 5.273438 -2.421875 5.242188 -2.285156 5.109375 -2.171875 C 4.742188 -1.859375 4.363281 -1.550781 3.96875 -1.25 C 3.582031 -0.957031 3.1875 -0.671875 2.78125 -0.390625 C 2.445312 -0.171875 2.09375 0.0507812 1.71875 0.28125 C 1.351562 0.507812 0.976562 0.671875 0.59375 0.765625 C 0.289062 0.804688 0.00390625 0.757812 -0.265625 0.625 C -0.535156 0.488281 -0.753906 0.289062 -0.921875 0.03125 C -1.085938 -0.21875 -1.171875 -0.5 -1.171875 -0.8125 C -1.191406 -1.3125 -1.054688 -1.832031 -0.765625 -2.375 C -0.472656 -2.925781 -0.203125 -3.414062 0.046875 -3.84375 C 0.140625 -3.976562 0.257812 -4.03125 0.40625 -4 C 0.5625 -3.976562 0.71875 -3.90625 0.875 -3.78125 C 1.03125 -3.65625 1.144531 -3.515625 1.21875 -3.359375 C 1.289062 -3.203125 1.300781 -3.070312 1.25 -2.96875 C 1.039062 -2.632812 0.851562 -2.289062 0.6875 -1.9375 C 0.519531 -1.59375 0.367188 -1.242188 0.234375 -0.890625 C 0.203125 -0.804688 0.160156 -0.707031 0.109375 -0.59375 C 0.429688 -0.644531 0.851562 -0.789062 1.375 -1.03125 C 1.90625 -1.28125 2.441406 -1.566406 2.984375 -1.890625 C 3.523438 -2.222656 3.984375 -2.546875 4.359375 -2.859375 Z M 2.28125 -5.25 C 2.1875 -5.0625 2.023438 -5.015625 1.796875 -5.109375 C 1.578125 -5.203125 1.382812 -5.351562 1.21875 -5.5625 C 1.050781 -5.769531 1.003906 -5.957031 1.078125 -6.125 C 1.222656 -6.40625 1.320312 -6.609375 1.375 -6.734375 C 1.4375 -6.867188 1.46875 -6.9375 1.46875 -6.9375 C 1.5625 -7.070312 1.6875 -7.128906 1.84375 -7.109375 C 2 -7.085938 2.148438 -7.015625 2.296875 -6.890625 C 2.441406 -6.765625 2.554688 -6.625 2.640625 -6.46875 C 2.722656 -6.3125 2.734375 -6.175781 2.671875 -6.0625 C 2.671875 -6.0625 2.644531 -6.007812 2.59375 -5.90625 C 2.550781 -5.800781 2.445312 -5.582031 2.28125 -5.25 Z M 2.28125 -5.25 "/></g></g></g><g fill="#ffffff" fill-opacity="1"><g transform="translate(24.170337, 22.159501)"><g><path d="M 5.25 -4.421875 C 5.5625 -4.128906 5.734375 -3.78125 5.765625 -3.375 C 5.804688 -2.976562 5.757812 -2.597656 5.625 -2.234375 C 5.4375 -1.773438 5.160156 -1.296875 4.796875 -0.796875 C 4.441406 -0.304688 4.019531 0.101562 3.53125 0.4375 C 3.050781 0.769531 2.539062 0.9375 2 0.9375 C 1.863281 0.9375 1.710938 0.863281 1.546875 0.71875 C 1.390625 0.570312 1.273438 0.425781 1.203125 0.28125 C 0.523438 1.320312 -0.0703125 2.410156 -0.59375 3.546875 C -1.113281 4.679688 -1.578125 5.828125 -1.984375 6.984375 C -2.023438 7.128906 -2.117188 7.191406 -2.265625 7.171875 C -2.410156 7.160156 -2.5625 7.09375 -2.71875 6.96875 C -2.875 6.851562 -3 6.710938 -3.09375 6.546875 C -3.195312 6.390625 -3.222656 6.25 -3.171875 6.125 C -2.554688 4.34375 -1.945312 2.5625 -1.34375 0.78125 C -0.75 -1 -0.148438 -2.78125 0.453125 -4.5625 C 0.503906 -4.71875 0.601562 -4.78125 0.75 -4.75 C 0.894531 -4.726562 1.039062 -4.65625 1.1875 -4.53125 C 1.34375 -4.414062 1.46875 -4.28125 1.5625 -4.125 C 1.65625 -3.96875 1.679688 -3.820312 1.640625 -3.6875 C 1.554688 -3.457031 1.476562 -3.226562 1.40625 -3 C 1.332031 -2.769531 1.253906 -2.535156 1.171875 -2.296875 C 1.421875 -2.617188 1.6875 -2.929688 1.96875 -3.234375 C 2.25 -3.546875 2.550781 -3.832031 2.875 -4.09375 C 3.25 -4.414062 3.632812 -4.648438 4.03125 -4.796875 C 4.425781 -4.941406 4.832031 -4.816406 5.25 -4.421875 Z M 4.375 -2.96875 C 4.40625 -3.050781 4.425781 -3.132812 4.4375 -3.21875 C 4.457031 -3.300781 4.472656 -3.378906 4.484375 -3.453125 C 4.429688 -3.421875 4.378906 -3.382812 4.328125 -3.34375 C 4.265625 -3.289062 4.195312 -3.238281 4.125 -3.1875 C 4.0625 -3.132812 4 -3.085938 3.9375 -3.046875 C 3.664062 -2.804688 3.40625 -2.550781 3.15625 -2.28125 C 2.90625 -2.019531 2.664062 -1.75 2.4375 -1.46875 C 2.144531 -1.113281 1.851562 -0.722656 1.5625 -0.296875 C 1.976562 -0.347656 2.367188 -0.519531 2.734375 -0.8125 C 3.109375 -1.113281 3.4375 -1.460938 3.71875 -1.859375 C 4 -2.265625 4.21875 -2.632812 4.375 -2.96875 Z M 4.375 -2.96875 "/></g></g></g><g fill="#ffffff" fill-opacity="1"><g transform="translate(32.067869, 22.159501)"><g><path d="M 4.21875 -3.09375 C 4.394531 -3.144531 4.546875 -3.101562 4.671875 -2.96875 C 4.804688 -2.84375 4.878906 -2.6875 4.890625 -2.5 C 4.910156 -2.320312 4.820312 -2.195312 4.625 -2.125 C 3.75 -1.78125 2.957031 -1.332031 2.25 -0.78125 C 2.363281 -0.445312 2.394531 -0.109375 2.34375 0.234375 C 2.28125 0.597656 2.128906 0.960938 1.890625 1.328125 C 1.660156 1.703125 1.367188 1.957031 1.015625 2.09375 C 0.660156 2.226562 0.289062 2.132812 -0.09375 1.8125 C -0.507812 1.46875 -0.710938 1.097656 -0.703125 0.703125 C -0.691406 0.304688 -0.539062 -0.078125 -0.25 -0.453125 C 0.0390625 -0.835938 0.398438 -1.207031 0.828125 -1.5625 C 0.660156 -1.757812 0.488281 -1.945312 0.3125 -2.125 C 0.132812 -2.300781 -0.015625 -2.515625 -0.140625 -2.765625 C -0.273438 -3.023438 -0.34375 -3.316406 -0.34375 -3.640625 C -0.34375 -3.972656 -0.253906 -4.25 -0.078125 -4.46875 C 0.0976562 -4.695312 0.382812 -4.804688 0.78125 -4.796875 C 0.945312 -4.773438 1.109375 -4.695312 1.265625 -4.5625 C 1.421875 -4.4375 1.535156 -4.296875 1.609375 -4.140625 C 1.660156 -4.035156 1.679688 -3.910156 1.671875 -3.765625 C 1.660156 -3.617188 1.570312 -3.546875 1.40625 -3.546875 C 1.144531 -3.578125 0.988281 -3.519531 0.9375 -3.375 C 0.882812 -3.226562 0.882812 -3.0625 0.9375 -2.875 C 0.988281 -2.695312 1.0625 -2.546875 1.15625 -2.421875 C 1.195312 -2.359375 1.25 -2.296875 1.3125 -2.234375 C 1.375 -2.171875 1.425781 -2.109375 1.46875 -2.046875 C 2.050781 -2.328125 2.59375 -2.539062 3.09375 -2.6875 C 3.59375 -2.84375 3.96875 -2.976562 4.21875 -3.09375 Z M 4.21875 -3.09375 "/></g></g></g><g fill="#ffffff" fill-opacity="1"><g transform="translate(37.248651, 22.159501)"><g/></g></g><g fill="#ffffff" fill-opacity="1"><g transform="translate(46.71177, 22.159501)"><g><path d="M 8.640625 -2.953125 C 8.785156 -3.066406 8.945312 -3.082031 9.125 -3 C 9.300781 -2.914062 9.4375 -2.789062 9.53125 -2.625 C 9.625 -2.457031 9.601562 -2.3125 9.46875 -2.1875 C 8.925781 -1.707031 8.382812 -1.238281 7.84375 -0.78125 C 7.300781 -0.320312 6.722656 0.0820312 6.109375 0.4375 C 5.828125 0.601562 5.519531 0.757812 5.1875 0.90625 C 4.863281 1.050781 4.53125 1.101562 4.1875 1.0625 C 3.832031 1.03125 3.523438 0.890625 3.265625 0.640625 C 3.003906 0.398438 2.820312 0.109375 2.71875 -0.234375 C 2.65625 -0.441406 2.628906 -0.644531 2.640625 -0.84375 C 2.660156 -1.050781 2.703125 -1.242188 2.765625 -1.421875 C 2.148438 -1.023438 1.566406 -0.566406 1.015625 -0.046875 C 0.460938 0.460938 -0.164062 0.851562 -0.875 1.125 C -1.03125 1.1875 -1.195312 1.160156 -1.375 1.046875 C -1.550781 0.929688 -1.691406 0.78125 -1.796875 0.59375 C -1.898438 0.414062 -1.9375 0.25 -1.90625 0.09375 C -1.757812 -0.59375 -1.492188 -1.265625 -1.109375 -1.921875 C -0.734375 -2.578125 -0.265625 -3.117188 0.296875 -3.546875 C 0.753906 -3.878906 1.238281 -4.007812 1.75 -3.9375 C 2.269531 -3.875 2.703125 -3.628906 3.046875 -3.203125 C 3.160156 -3.242188 3.28125 -3.289062 3.40625 -3.34375 C 3.5625 -3.375 3.738281 -3.316406 3.9375 -3.171875 C 4.0625 -3.085938 4.175781 -2.976562 4.28125 -2.84375 C 4.382812 -2.71875 4.445312 -2.59375 4.46875 -2.46875 C 4.476562 -2.382812 4.46875 -2.3125 4.4375 -2.25 C 4.425781 -2.070312 4.390625 -1.894531 4.328125 -1.71875 C 4.265625 -1.550781 4.203125 -1.378906 4.140625 -1.203125 C 4.078125 -1.023438 4.03125 -0.851562 4 -0.6875 C 3.976562 -0.519531 3.941406 -0.34375 3.890625 -0.15625 C 3.910156 -0.15625 3.921875 -0.15625 3.921875 -0.15625 C 3.929688 -0.15625 3.945312 -0.15625 3.96875 -0.15625 C 4.300781 -0.207031 4.6875 -0.335938 5.125 -0.546875 C 5.570312 -0.765625 6.019531 -1.019531 6.46875 -1.3125 C 6.925781 -1.613281 7.347656 -1.910156 7.734375 -2.203125 C 8.117188 -2.503906 8.421875 -2.753906 8.640625 -2.953125 Z M 0.328125 -1.40625 C 0.628906 -1.644531 0.925781 -1.882812 1.21875 -2.125 C 1.507812 -2.363281 1.816406 -2.582031 2.140625 -2.78125 C 2.128906 -2.78125 2.125 -2.78125 2.125 -2.78125 C 2.09375 -2.78125 2.050781 -2.773438 2 -2.765625 C 1.957031 -2.765625 1.910156 -2.753906 1.859375 -2.734375 C 1.742188 -2.703125 1.625 -2.648438 1.5 -2.578125 C 1.382812 -2.503906 1.285156 -2.425781 1.203125 -2.34375 C 1.023438 -2.207031 0.867188 -2.0625 0.734375 -1.90625 C 0.597656 -1.757812 0.476562 -1.609375 0.375 -1.453125 C 0.351562 -1.429688 0.34375 -1.414062 0.34375 -1.40625 C 0.34375 -1.40625 0.335938 -1.40625 0.328125 -1.40625 Z M 0.328125 -1.40625 "/></g></g></g><g fill="#ffffff" fill-opacity="1"><g transform="translate(56.266985, 22.159501)"><g><path d="M 9.21875 -2.96875 C 9.382812 -3.050781 9.535156 -3.035156 9.671875 -2.921875 C 9.804688 -2.816406 9.882812 -2.679688 9.90625 -2.515625 C 9.9375 -2.359375 9.851562 -2.234375 9.65625 -2.140625 C 9.070312 -1.847656 8.492188 -1.535156 7.921875 -1.203125 C 7.359375 -0.878906 6.789062 -0.539062 6.21875 -0.1875 C 5.882812 0.03125 5.523438 0.265625 5.140625 0.515625 C 4.753906 0.765625 4.351562 0.945312 3.9375 1.0625 C 3.539062 1.15625 3.191406 1.046875 2.890625 0.734375 C 2.585938 0.429688 2.46875 0.078125 2.53125 -0.328125 C 2.5625 -0.554688 2.617188 -0.78125 2.703125 -1 C 2.785156 -1.21875 2.882812 -1.445312 3 -1.6875 C 1.675781 -0.945312 0.523438 0.00390625 -0.453125 1.171875 C -0.578125 1.328125 -0.734375 1.347656 -0.921875 1.234375 C -1.117188 1.117188 -1.285156 0.953125 -1.421875 0.734375 C -1.566406 0.523438 -1.625 0.347656 -1.59375 0.203125 C -1.4375 -0.378906 -1.226562 -0.945312 -0.96875 -1.5 C -0.707031 -2.0625 -0.421875 -2.613281 -0.109375 -3.15625 C -0.0351562 -3.289062 0.0703125 -3.347656 0.21875 -3.328125 C 0.375 -3.304688 0.53125 -3.234375 0.6875 -3.109375 C 0.84375 -2.984375 0.957031 -2.835938 1.03125 -2.671875 C 1.113281 -2.515625 1.125 -2.382812 1.0625 -2.28125 C 1.0625 -2.257812 1.054688 -2.242188 1.046875 -2.234375 C 1.035156 -2.222656 1.023438 -2.207031 1.015625 -2.1875 C 2.054688 -2.90625 3.1875 -3.453125 4.40625 -3.828125 C 4.570312 -3.890625 4.742188 -3.851562 4.921875 -3.71875 C 5.109375 -3.59375 5.25 -3.429688 5.34375 -3.234375 C 5.445312 -3.046875 5.453125 -2.863281 5.359375 -2.6875 C 5.160156 -2.375 4.972656 -2.050781 4.796875 -1.71875 C 4.617188 -1.382812 4.445312 -1.050781 4.28125 -0.71875 C 5.082031 -1.113281 5.90625 -1.492188 6.75 -1.859375 C 7.59375 -2.234375 8.414062 -2.601562 9.21875 -2.96875 Z M 9.21875 -2.96875 "/></g></g></g><g fill="#ffffff" fill-opacity="1"><g transform="translate(66.328706, 22.159501)"><g><path d="M 9.125 -13.171875 C 9.320312 -13.109375 9.507812 -12.976562 9.6875 -12.78125 C 9.863281 -12.582031 9.9375 -12.398438 9.90625 -12.234375 C 9.90625 -12.203125 9.894531 -12.171875 9.875 -12.140625 C 8.695312 -9.816406 7.554688 -7.484375 6.453125 -5.140625 C 5.347656 -2.804688 4.375 -0.410156 3.53125 2.046875 C 3.476562 2.203125 3.378906 2.269531 3.234375 2.25 C 3.085938 2.226562 2.9375 2.15625 2.78125 2.03125 C 2.632812 1.914062 2.515625 1.773438 2.421875 1.609375 C 2.328125 1.453125 2.300781 1.304688 2.34375 1.171875 C 2.519531 0.679688 2.691406 0.1875 2.859375 -0.3125 C 3.035156 -0.8125 3.226562 -1.296875 3.4375 -1.765625 C 2.851562 -1.160156 2.21875 -0.601562 1.53125 -0.09375 C 0.84375 0.414062 0.078125 0.820312 -0.765625 1.125 C -0.910156 1.1875 -1.070312 1.160156 -1.25 1.046875 C -1.425781 0.929688 -1.5625 0.78125 -1.65625 0.59375 C -1.757812 0.414062 -1.796875 0.25 -1.765625 0.09375 C -1.617188 -0.59375 -1.359375 -1.265625 -0.984375 -1.921875 C -0.617188 -2.578125 -0.148438 -3.117188 0.421875 -3.546875 C 0.816406 -3.847656 1.242188 -3.988281 1.703125 -3.96875 C 2.160156 -3.945312 2.5625 -3.785156 2.90625 -3.484375 C 3 -3.585938 3.082031 -3.6875 3.15625 -3.78125 C 4.257812 -5.1875 5.253906 -6.675781 6.140625 -8.25 C 7.035156 -9.832031 7.882812 -11.421875 8.6875 -13.015625 C 8.695312 -13.023438 8.703125 -13.039062 8.703125 -13.0625 C 8.765625 -13.15625 8.859375 -13.203125 8.984375 -13.203125 C 9.023438 -13.203125 9.070312 -13.191406 9.125 -13.171875 Z M 0.09375 -0.828125 C 0.507812 -1.085938 0.898438 -1.382812 1.265625 -1.71875 C 1.628906 -2.050781 1.984375 -2.398438 2.328125 -2.765625 C 2.296875 -2.773438 2.269531 -2.78125 2.25 -2.78125 C 2.207031 -2.78125 2.160156 -2.773438 2.109375 -2.765625 C 2.066406 -2.765625 2.023438 -2.753906 1.984375 -2.734375 C 1.859375 -2.703125 1.738281 -2.648438 1.625 -2.578125 C 1.507812 -2.503906 1.40625 -2.425781 1.3125 -2.34375 C 1.15625 -2.207031 1.007812 -2.0625 0.875 -1.90625 C 0.738281 -1.757812 0.609375 -1.609375 0.484375 -1.453125 C 0.347656 -1.253906 0.21875 -1.046875 0.09375 -0.828125 Z M 0.09375 -0.828125 "/></g></g></g><g fill="#ffffff" fill-opacity="1"><g transform="translate(74.525538, 22.159501)"><g/></g></g><g fill="#ffffff" fill-opacity="1"><g transform="translate(83.988657, 22.159501)"><g><path d="M 11.453125 -8.84375 C 11.585938 -8.769531 11.726562 -8.648438 11.875 -8.484375 C 12.019531 -8.328125 12.082031 -8.160156 12.0625 -7.984375 C 12.050781 -7.816406 11.984375 -7.722656 11.859375 -7.703125 C 11.734375 -7.679688 11.601562 -7.707031 11.46875 -7.78125 C 10.875 -8.09375 10.242188 -8.300781 9.578125 -8.40625 C 8.921875 -8.507812 8.257812 -8.585938 7.59375 -8.640625 C 6.289062 -8.710938 4.976562 -8.742188 3.65625 -8.734375 C 3.644531 -8.734375 3.628906 -8.734375 3.609375 -8.734375 C 3.597656 -8.734375 3.59375 -8.734375 3.59375 -8.734375 C 2.914062 -7.242188 2.296875 -5.726562 1.734375 -4.1875 C 1.171875 -2.65625 0.722656 -1.097656 0.390625 0.484375 C 0.0664062 2.066406 -0.078125 3.675781 -0.046875 5.3125 C -0.046875 5.5 -0.109375 5.597656 -0.234375 5.609375 C -0.359375 5.628906 -0.5 5.585938 -0.65625 5.484375 C -0.8125 5.390625 -0.953125 5.269531 -1.078125 5.125 C -1.203125 4.976562 -1.265625 4.835938 -1.265625 4.703125 C -1.304688 2.367188 -1.003906 0.0859375 -0.359375 -2.140625 C 0.273438 -4.367188 1.054688 -6.539062 1.984375 -8.65625 C -0.222656 -8.53125 -2.410156 -8.265625 -4.578125 -7.859375 C -4.722656 -7.828125 -4.875 -7.863281 -5.03125 -7.96875 C -5.195312 -8.070312 -5.335938 -8.203125 -5.453125 -8.359375 C -5.566406 -8.515625 -5.628906 -8.660156 -5.640625 -8.796875 C -5.660156 -8.929688 -5.597656 -9.015625 -5.453125 -9.046875 C -4.140625 -9.296875 -2.8125 -9.492188 -1.46875 -9.640625 C -0.132812 -9.796875 1.207031 -9.890625 2.5625 -9.921875 C 2.800781 -10.460938 3.039062 -11 3.28125 -11.53125 C 3.53125 -12.0625 3.785156 -12.585938 4.046875 -13.109375 C 4.109375 -13.242188 4.21875 -13.300781 4.375 -13.28125 C 4.53125 -13.257812 4.679688 -13.1875 4.828125 -13.0625 C 4.984375 -12.9375 5.101562 -12.796875 5.1875 -12.640625 C 5.269531 -12.484375 5.285156 -12.347656 5.234375 -12.234375 C 5.046875 -11.847656 4.863281 -11.46875 4.6875 -11.09375 C 4.507812 -10.71875 4.328125 -10.34375 4.140625 -9.96875 C 4.953125 -9.96875 5.785156 -9.953125 6.640625 -9.921875 C 7.492188 -9.890625 8.332031 -9.789062 9.15625 -9.625 C 9.976562 -9.46875 10.742188 -9.207031 11.453125 -8.84375 Z M 11.453125 -8.84375 "/></g></g></g><g fill="#ffffff" fill-opacity="1"><g transform="translate(87.949209, 22.159501)"><g><path d="M 4.359375 -2.859375 C 4.492188 -2.984375 4.648438 -3.007812 4.828125 -2.9375 C 5.003906 -2.863281 5.128906 -2.742188 5.203125 -2.578125 C 5.273438 -2.421875 5.242188 -2.285156 5.109375 -2.171875 C 4.742188 -1.859375 4.363281 -1.550781 3.96875 -1.25 C 3.582031 -0.957031 3.1875 -0.671875 2.78125 -0.390625 C 2.445312 -0.171875 2.09375 0.0507812 1.71875 0.28125 C 1.351562 0.507812 0.976562 0.671875 0.59375 0.765625 C 0.289062 0.804688 0.00390625 0.757812 -0.265625 0.625 C -0.535156 0.488281 -0.753906 0.289062 -0.921875 0.03125 C -1.085938 -0.21875 -1.171875 -0.5 -1.171875 -0.8125 C -1.191406 -1.3125 -1.054688 -1.832031 -0.765625 -2.375 C -0.472656 -2.925781 -0.203125 -3.414062 0.046875 -3.84375 C 0.140625 -3.976562 0.257812 -4.03125 0.40625 -4 C 0.5625 -3.976562 0.71875 -3.90625 0.875 -3.78125 C 1.03125 -3.65625 1.144531 -3.515625 1.21875 -3.359375 C 1.289062 -3.203125 1.300781 -3.070312 1.25 -2.96875 C 1.039062 -2.632812 0.851562 -2.289062 0.6875 -1.9375 C 0.519531 -1.59375 0.367188 -1.242188 0.234375 -0.890625 C 0.203125 -0.804688 0.160156 -0.707031 0.109375 -0.59375 C 0.429688 -0.644531 0.851562 -0.789062 1.375 -1.03125 C 1.90625 -1.28125 2.441406 -1.566406 2.984375 -1.890625 C 3.523438 -2.222656 3.984375 -2.546875 4.359375 -2.859375 Z M 2.28125 -5.25 C 2.1875 -5.0625 2.023438 -5.015625 1.796875 -5.109375 C 1.578125 -5.203125 1.382812 -5.351562 1.21875 -5.5625 C 1.050781 -5.769531 1.003906 -5.957031 1.078125 -6.125 C 1.222656 -6.40625 1.320312 -6.609375 1.375 -6.734375 C 1.4375 -6.867188 1.46875 -6.9375 1.46875 -6.9375 C 1.5625 -7.070312 1.6875 -7.128906 1.84375 -7.109375 C 2 -7.085938 2.148438 -7.015625 2.296875 -6.890625 C 2.441406 -6.765625 2.554688 -6.625 2.640625 -6.46875 C 2.722656 -6.3125 2.734375 -6.175781 2.671875 -6.0625 C 2.671875 -6.0625 2.644531 -6.007812 2.59375 -5.90625 C 2.550781 -5.800781 2.445312 -5.582031 2.28125 -5.25 Z M 2.28125 -5.25 "/></g></g></g><g fill="#ffffff" fill-opacity="1"><g transform="translate(93.245116, 22.159501)"><g><path d="M 5.25 -4.421875 C 5.5625 -4.128906 5.734375 -3.78125 5.765625 -3.375 C 5.804688 -2.976562 5.757812 -2.597656 5.625 -2.234375 C 5.4375 -1.773438 5.160156 -1.296875 4.796875 -0.796875 C 4.441406 -0.304688 4.019531 0.101562 3.53125 0.4375 C 3.050781 0.769531 2.539062 0.9375 2 0.9375 C 1.863281 0.9375 1.710938 0.863281 1.546875 0.71875 C 1.390625 0.570312 1.273438 0.425781 1.203125 0.28125 C 0.523438 1.320312 -0.0703125 2.410156 -0.59375 3.546875 C -1.113281 4.679688 -1.578125 5.828125 -1.984375 6.984375 C -2.023438 7.128906 -2.117188 7.191406 -2.265625 7.171875 C -2.410156 7.160156 -2.5625 7.09375 -2.71875 6.96875 C -2.875 6.851562 -3 6.710938 -3.09375 6.546875 C -3.195312 6.390625 -3.222656 6.25 -3.171875 6.125 C -2.554688 4.34375 -1.945312 2.5625 -1.34375 0.78125 C -0.75 -1 -0.148438 -2.78125 0.453125 -4.5625 C 0.503906 -4.71875 0.601562 -4.78125 0.75 -4.75 C 0.894531 -4.726562 1.039062 -4.65625 1.1875 -4.53125 C 1.34375 -4.414062 1.46875 -4.28125 1.5625 -4.125 C 1.65625 -3.96875 1.679688 -3.820312 1.640625 -3.6875 C 1.554688 -3.457031 1.476562 -3.226562 1.40625 -3 C 1.332031 -2.769531 1.253906 -2.535156 1.171875 -2.296875 C 1.421875 -2.617188 1.6875 -2.929688 1.96875 -3.234375 C 2.25 -3.546875 2.550781 -3.832031 2.875 -4.09375 C 3.25 -4.414062 3.632812 -4.648438 4.03125 -4.796875 C 4.425781 -4.941406 4.832031 -4.816406 5.25 -4.421875 Z M 4.375 -2.96875 C 4.40625 -3.050781 4.425781 -3.132812 4.4375 -3.21875 C 4.457031 -3.300781 4.472656 -3.378906 4.484375 -3.453125 C 4.429688 -3.421875 4.378906 -3.382812 4.328125 -3.34375 C 4.265625 -3.289062 4.195312 -3.238281 4.125 -3.1875 C 4.0625 -3.132812 4 -3.085938 3.9375 -3.046875 C 3.664062 -2.804688 3.40625 -2.550781 3.15625 -2.28125 C 2.90625 -2.019531 2.664062 -1.75 2.4375 -1.46875 C 2.144531 -1.113281 1.851562 -0.722656 1.5625 -0.296875 C 1.976562 -0.347656 2.367188 -0.519531 2.734375 -0.8125 C 3.109375 -1.113281 3.4375 -1.460938 3.71875 -1.859375 C 4 -2.265625 4.21875 -2.632812 4.375 -2.96875 Z M 4.375 -2.96875 "/></g></g></g><g fill="#ffffff" fill-opacity="1"><g transform="translate(101.142648, 22.159501)"><g><path d="M 4.21875 -3.09375 C 4.394531 -3.144531 4.546875 -3.101562 4.671875 -2.96875 C 4.804688 -2.84375 4.878906 -2.6875 4.890625 -2.5 C 4.910156 -2.320312 4.820312 -2.195312 4.625 -2.125 C 3.75 -1.78125 2.957031 -1.332031 2.25 -0.78125 C 2.363281 -0.445312 2.394531 -0.109375 2.34375 0.234375 C 2.28125 0.597656 2.128906 0.960938 1.890625 1.328125 C 1.660156 1.703125 1.367188 1.957031 1.015625 2.09375 C 0.660156 2.226562 0.289062 2.132812 -0.09375 1.8125 C -0.507812 1.46875 -0.710938 1.097656 -0.703125 0.703125 C -0.691406 0.304688 -0.539062 -0.078125 -0.25 -0.453125 C 0.0390625 -0.835938 0.398438 -1.207031 0.828125 -1.5625 C 0.660156 -1.757812 0.488281 -1.945312 0.3125 -2.125 C 0.132812 -2.300781 -0.015625 -2.515625 -0.140625 -2.765625 C -0.273438 -3.023438 -0.34375 -3.316406 -0.34375 -3.640625 C -0.34375 -3.972656 -0.253906 -4.25 -0.078125 -4.46875 C 0.0976562 -4.695312 0.382812 -4.804688 0.78125 -4.796875 C 0.945312 -4.773438 1.109375 -4.695312 1.265625 -4.5625 C 1.421875 -4.4375 1.535156 -4.296875 1.609375 -4.140625 C 1.660156 -4.035156 1.679688 -3.910156 1.671875 -3.765625 C 1.660156 -3.617188 1.570312 -3.546875 1.40625 -3.546875 C 1.144531 -3.578125 0.988281 -3.519531 0.9375 -3.375 C 0.882812 -3.226562 0.882812 -3.0625 0.9375 -2.875 C 0.988281 -2.695312 1.0625 -2.546875 1.15625 -2.421875 C 1.195312 -2.359375 1.25 -2.296875 1.3125 -2.234375 C 1.375 -2.171875 1.425781 -2.109375 1.46875 -2.046875 C 2.050781 -2.328125 2.59375 -2.539062 3.09375 -2.6875 C 3.59375 -2.84375 3.96875 -2.976562 4.21875 -3.09375 Z M 4.21875 -3.09375 "/></g></g></g><g fill="#ffffff" fill-opacity="1"><g transform="translate(106.323431, 22.159501)"><g><path d="M 2.328125 -0.875 C 2.328125 -0.8125 2.3125 -0.757812 2.28125 -0.71875 C 2.257812 -0.664062 2.222656 -0.632812 2.171875 -0.625 C 2.023438 -0.507812 1.90625 -0.394531 1.8125 -0.28125 C 1.769531 -0.21875 1.707031 -0.1875 1.625 -0.1875 C 1.550781 -0.1875 1.492188 -0.191406 1.453125 -0.203125 C 1.359375 -0.222656 1.269531 -0.265625 1.1875 -0.328125 C 1.113281 -0.390625 1.046875 -0.445312 0.984375 -0.5 C 0.835938 -0.644531 0.738281 -0.800781 0.6875 -0.96875 C 0.65625 -1.101562 0.679688 -1.222656 0.765625 -1.328125 C 0.828125 -1.421875 0.898438 -1.503906 0.984375 -1.578125 C 1.078125 -1.660156 1.179688 -1.734375 1.296875 -1.796875 C 1.367188 -1.804688 1.453125 -1.796875 1.546875 -1.765625 C 1.609375 -1.753906 1.660156 -1.742188 1.703125 -1.734375 C 1.796875 -1.679688 1.875 -1.617188 1.9375 -1.546875 C 2.007812 -1.484375 2.078125 -1.410156 2.140625 -1.328125 C 2.191406 -1.273438 2.234375 -1.203125 2.265625 -1.109375 C 2.304688 -1.023438 2.328125 -0.945312 2.328125 -0.875 Z M 2.328125 -0.875 "/></g></g></g></g></g><g transform="matrix(1, 0, 0, 1, 38, 109)"><g clip-path="url(#75ba037a6b)"><g fill="#ffffff" fill-opacity="1"><g transform="translate(0.30104, 74.828013)"><g><path d="M 7.84375 0 L 7.84375 -70.171875 L 35.578125 -70.171875 C 39.753906 -70.171875 43.34375 -69.253906 46.34375 -67.421875 C 49.351562 -65.597656 51.65625 -63.082031 53.25 -59.875 C 54.851562 -56.675781 55.59375 -53.019531 55.46875 -48.90625 C 55.40625 -46.289062 54.863281 -43.707031 53.84375 -41.15625 C 52.832031 -38.613281 51.21875 -36.585938 49 -35.078125 C 51.289062 -33.515625 53.070312 -31.472656 54.34375 -28.953125 C 55.613281 -26.441406 56.25 -23.8125 56.25 -21.0625 C 56.25 -17.144531 55.316406 -13.601562 53.453125 -10.4375 C 51.597656 -7.269531 49.101562 -4.738281 45.96875 -2.84375 C 42.832031 -0.945312 39.367188 0 35.578125 0 Z M 21.953125 -56.15625 L 21.953125 -42.046875 L 34.390625 -42.046875 C 36.421875 -42.046875 38.003906 -42.742188 39.140625 -44.140625 C 40.285156 -45.546875 40.859375 -47.195312 40.859375 -49.09375 C 40.859375 -51.050781 40.285156 -52.71875 39.140625 -54.09375 C 38.003906 -55.46875 36.421875 -56.15625 34.390625 -56.15625 Z M 21.953125 -28.03125 L 21.953125 -14.015625 L 34.390625 -14.015625 C 36.421875 -14.015625 38.101562 -14.695312 39.4375 -16.0625 C 40.78125 -17.4375 41.453125 -19.101562 41.453125 -21.0625 C 41.453125 -23.03125 40.78125 -24.679688 39.4375 -26.015625 C 38.101562 -27.359375 36.421875 -28.03125 34.390625 -28.03125 Z M 21.953125 -28.03125 "/></g></g></g><g fill="#ffffff" fill-opacity="1"><g transform="translate(74.580535, 74.828013)"><g><path d="M 7.84375 -70.0625 L 21.859375 -70.0625 L 21.859375 -14.015625 L 44.09375 -14.015625 L 44.09375 0 L 7.84375 0 Z M 7.84375 -70.0625 "/></g></g></g><g fill="#ffffff" fill-opacity="1"><g transform="translate(136.317193, 74.828013)"><g><path d="M 41.546875 0.984375 C 35.535156 0.984375 30.257812 -0.0234375 25.71875 -2.046875 C 21.175781 -4.078125 17.398438 -6.804688 14.390625 -10.234375 C 11.390625 -13.671875 9.140625 -17.546875 7.640625 -21.859375 C 6.140625 -26.171875 5.390625 -30.59375 5.390625 -35.125 C 5.390625 -39.664062 6.140625 -44.09375 7.640625 -48.40625 C 9.140625 -52.71875 11.390625 -56.585938 14.390625 -60.015625 C 17.398438 -63.453125 21.175781 -66.179688 25.71875 -68.203125 C 30.257812 -70.234375 35.535156 -71.25 41.546875 -71.25 C 47.554688 -71.25 52.832031 -70.234375 57.375 -68.203125 C 61.914062 -66.179688 65.6875 -63.453125 68.6875 -60.015625 C 71.695312 -56.585938 73.953125 -52.71875 75.453125 -48.40625 C 76.960938 -44.09375 77.71875 -39.664062 77.71875 -35.125 C 77.71875 -30.59375 76.960938 -26.171875 75.453125 -21.859375 C 73.953125 -17.546875 71.695312 -13.671875 68.6875 -10.234375 C 65.6875 -6.804688 61.914062 -4.078125 57.375 -2.046875 C 52.832031 -0.0234375 47.554688 0.984375 41.546875 0.984375 Z M 41.546875 -13.53125 C 45.535156 -13.53125 48.96875 -14.3125 51.84375 -15.875 C 54.71875 -17.445312 57.003906 -19.519531 58.703125 -22.09375 C 60.398438 -24.675781 61.539062 -27.503906 62.125 -30.578125 C 62.71875 -33.648438 62.71875 -36.71875 62.125 -39.78125 C 61.539062 -42.851562 60.398438 -45.679688 58.703125 -48.265625 C 57.003906 -50.847656 54.71875 -52.921875 51.84375 -54.484375 C 48.96875 -56.054688 45.535156 -56.84375 41.546875 -56.84375 C 37.566406 -56.84375 34.140625 -56.054688 31.265625 -54.484375 C 28.390625 -52.921875 26.101562 -50.847656 24.40625 -48.265625 C 22.707031 -45.679688 21.5625 -42.851562 20.96875 -39.78125 C 20.382812 -36.71875 20.382812 -33.648438 20.96875 -30.578125 C 21.5625 -27.503906 22.707031 -24.675781 24.40625 -22.09375 C 26.101562 -19.519531 28.390625 -17.445312 31.265625 -15.875 C 34.140625 -14.3125 37.566406 -13.53125 41.546875 -13.53125 Z M 41.546875 -13.53125 "/></g></g></g><g fill="#ffffff" fill-opacity="1"><g transform="translate(232.742625, 74.828013)"><g><path d="M 58.40625 -4.3125 C 55.726562 -2.8125 52.867188 -1.648438 49.828125 -0.828125 C 46.796875 -0.015625 43.613281 0.390625 40.28125 0.390625 C 34.53125 0.390625 29.445312 -0.585938 25.03125 -2.546875 C 20.625 -4.503906 16.914062 -7.132812 13.90625 -10.4375 C 10.90625 -13.738281 8.632812 -17.460938 7.09375 -21.609375 C 5.5625 -25.753906 4.765625 -30.046875 4.703125 -34.484375 C 4.640625 -38.929688 5.304688 -43.242188 6.703125 -47.421875 C 8.109375 -51.609375 10.28125 -55.414062 13.21875 -58.84375 C 16.164062 -62.28125 19.890625 -65.054688 24.390625 -67.171875 C 28.898438 -69.296875 34.195312 -70.457031 40.28125 -70.65625 C 43.082031 -70.789062 45.644531 -70.660156 47.96875 -70.265625 C 50.289062 -69.867188 52.21875 -69.441406 53.75 -68.984375 C 55.289062 -68.535156 56.253906 -68.242188 56.640625 -68.109375 L 54.984375 -53.90625 C 53.609375 -54.488281 51.742188 -55.085938 49.390625 -55.703125 C 47.035156 -56.328125 44 -56.578125 40.28125 -56.453125 C 36.226562 -56.316406 32.78125 -55.429688 29.9375 -53.796875 C 27.09375 -52.171875 24.835938 -50.082031 23.171875 -47.53125 C 21.503906 -44.976562 20.410156 -42.195312 19.890625 -39.1875 C 19.367188 -36.1875 19.398438 -33.179688 19.984375 -30.171875 C 20.578125 -27.171875 21.738281 -24.410156 23.46875 -21.890625 C 25.195312 -19.378906 27.46875 -17.375 30.28125 -15.875 C 33.09375 -14.375 36.425781 -13.625 40.28125 -13.625 C 40.9375 -13.625 41.585938 -13.671875 42.234375 -13.765625 C 42.890625 -13.867188 43.546875 -13.953125 44.203125 -14.015625 L 44.203125 -35.078125 L 58.40625 -35.078125 Z M 58.40625 -4.3125 "/></g></g></g></g></g></svg>