<svg xmlns="http://www.w3.org/2000/svg" xmlns:xlink="http://www.w3.org/1999/xlink" width="180" zoomAndPan="magnify" viewBox="0 0 135 135.000003" height="180" preserveAspectRatio="xMidYMid meet" version="1.0"><defs><g/><clipPath id="b22c8e20fe"><path d="M 0.496094 0 L 134.503906 0 L 134.503906 134.007812 L 0.496094 134.007812 Z M 0.496094 0 " clip-rule="nonzero"/></clipPath><clipPath id="d13dc78e6e"><path d="M 2 0.183594 L 4 0.183594 L 4 8 L 2 8 Z M 2 0.183594 " clip-rule="nonzero"/></clipPath><clipPath id="926427a7ce"><path d="M 6 0.183594 L 12 0.183594 L 12 8 L 6 8 Z M 6 0.183594 " clip-rule="nonzero"/></clipPath><clipPath id="5f4fb18e82"><path d="M 13 0.183594 L 18 0.183594 L 18 8 L 13 8 Z M 13 0.183594 " clip-rule="nonzero"/></clipPath><clipPath id="c1e1a3996c"><path d="M 19 0.183594 L 25 0.183594 L 25 8 L 19 8 Z M 19 0.183594 " clip-rule="nonzero"/></clipPath><clipPath id="957f57f27e"><path d="M 25 0.183594 L 32 0.183594 L 32 8 L 25 8 Z M 25 0.183594 " clip-rule="nonzero"/></clipPath><clipPath id="5ae83fd7eb"><path d="M 33 0.183594 L 39 0.183594 L 39 8 L 33 8 Z M 33 0.183594 " clip-rule="nonzero"/></clipPath><clipPath id="20c702d016"><path d="M 40 0.183594 L 46 0.183594 L 46 8 L 40 8 Z M 40 0.183594 " clip-rule="nonzero"/></clipPath><clipPath id="0974ed2c58"><path d="M 47 0.183594 L 52 0.183594 L 52 8 L 47 8 Z M 47 0.183594 " clip-rule="nonzero"/></clipPath><clipPath id="8f2aa022e8"><rect x="0" width="54" y="0" height="10"/></clipPath><clipPath id="9146aeaf50"><path d="M 0.382812 3 L 6 3 L 6 8 L 0.382812 8 Z M 0.382812 3 " clip-rule="nonzero"/></clipPath><clipPath id="c06e079dae"><path d="M 5 4 L 8 4 L 8 8.578125 L 5 8.578125 Z M 5 4 " clip-rule="nonzero"/></clipPath><clipPath id="e61e7d08b2"><path d="M 23 4 L 26 4 L 26 8.578125 L 23 8.578125 Z M 23 4 " clip-rule="nonzero"/></clipPath><clipPath id="beeae110be"><path d="M 27 5 L 28.972656 5 L 28.972656 7 L 27 7 Z M 27 5 " clip-rule="nonzero"/></clipPath><clipPath id="c805a8f5eb"><rect x="0" width="29" y="0" height="9"/></clipPath><clipPath id="c8531ed48d"><path d="M 0.507812 1 L 17 1 L 17 21 L 0.507812 21 Z M 0.507812 1 " clip-rule="nonzero"/></clipPath><clipPath id="c28d95dd6b"><rect x="0" width="99" y="0" height="27"/></clipPath></defs><g clip-path="url(#b22c8e20fe)"><path fill="#ffffff" d="M 0.496094 0 L 134.503906 0 L 134.503906 134.007812 L 0.496094 134.007812 Z M 0.496094 0 " fill-opacity="1" fill-rule="nonzero"/><path fill="#ff3131" d="M 0.496094 0 L 134.503906 0 L 134.503906 134.007812 L 0.496094 134.007812 Z M 0.496094 0 " fill-opacity="1" fill-rule="nonzero"/></g><g transform="matrix(1, 0, 0, 1, 41, 72)"><g clip-path="url(#8f2aa022e8)"><g clip-path="url(#d13dc78e6e)"><g fill="#ffffff" fill-opacity="1"><g transform="translate(1.260709, 7.391728)"><g><path d="M 2.0625 0 L 0.734375 0 L 0.734375 -6.625 L 2.0625 -6.625 Z M 2.0625 0 "/></g></g></g></g><g clip-path="url(#926427a7ce)"><g fill="#ffffff" fill-opacity="1"><g transform="translate(5.344613, 7.391728)"><g><path d="M 2.0625 -3.609375 L 2.0625 0 L 0.734375 0 L 0.734375 -6.765625 L 1.09375 -6.765625 L 4.4375 -2.875 L 4.4375 -6.609375 L 5.765625 -6.609375 L 5.765625 0.140625 L 5.421875 0.140625 Z M 2.0625 -3.609375 "/></g></g></g></g><g clip-path="url(#5f4fb18e82)"><g fill="#ffffff" fill-opacity="1"><g transform="translate(13.132052, 7.391728)"><g><path d="M 0.4375 -0.421875 L 0.609375 -1.8125 C 0.859375 -1.632812 1.109375 -1.503906 1.359375 -1.421875 C 1.609375 -1.347656 1.832031 -1.304688 2.03125 -1.296875 C 2.238281 -1.285156 2.394531 -1.28125 2.5 -1.28125 C 2.6875 -1.300781 2.847656 -1.375 2.984375 -1.5 C 3.128906 -1.625 3.191406 -1.773438 3.171875 -1.953125 C 3.160156 -2.148438 3.085938 -2.296875 2.953125 -2.390625 C 2.828125 -2.484375 2.675781 -2.5625 2.5 -2.625 C 2.144531 -2.757812 1.816406 -2.910156 1.515625 -3.078125 C 1.222656 -3.242188 0.984375 -3.453125 0.796875 -3.703125 C 0.617188 -3.960938 0.53125 -4.28125 0.53125 -4.65625 C 0.53125 -5.019531 0.609375 -5.351562 0.765625 -5.65625 C 0.921875 -5.957031 1.140625 -6.195312 1.421875 -6.375 C 1.710938 -6.550781 2.039062 -6.648438 2.40625 -6.671875 C 2.570312 -6.679688 2.78125 -6.671875 3.03125 -6.640625 C 3.28125 -6.617188 3.617188 -6.535156 4.046875 -6.390625 L 3.875 -5.109375 C 3.507812 -5.265625 3.21875 -5.351562 3 -5.375 C 2.789062 -5.394531 2.632812 -5.398438 2.53125 -5.390625 C 2.289062 -5.378906 2.117188 -5.296875 2.015625 -5.140625 C 1.910156 -4.992188 1.863281 -4.832031 1.875 -4.65625 C 1.894531 -4.46875 1.972656 -4.328125 2.109375 -4.234375 C 2.253906 -4.140625 2.421875 -4.054688 2.609375 -3.984375 C 2.953125 -3.859375 3.269531 -3.703125 3.5625 -3.515625 C 3.851562 -3.335938 4.085938 -3.117188 4.265625 -2.859375 C 4.441406 -2.609375 4.53125 -2.304688 4.53125 -1.953125 C 4.53125 -1.585938 4.445312 -1.253906 4.28125 -0.953125 C 4.125 -0.660156 3.894531 -0.425781 3.59375 -0.25 C 3.300781 -0.0703125 2.945312 0.03125 2.53125 0.0625 C 2.40625 0.0625 2.234375 0.0507812 2.015625 0.03125 C 1.804688 0.0195312 1.566406 -0.015625 1.296875 -0.078125 C 1.023438 -0.148438 0.738281 -0.265625 0.4375 -0.421875 Z M 0.4375 -0.421875 "/></g></g></g></g><g clip-path="url(#c1e1a3996c)"><g fill="#ffffff" fill-opacity="1"><g transform="translate(19.299194, 7.391728)"><g><path d="M 3.15625 0 L 1.828125 0 L 1.828125 -5.296875 L 0.1875 -5.296875 L 0.1875 -6.609375 L 4.8125 -6.609375 L 4.8125 -5.296875 L 3.15625 -5.296875 Z M 3.15625 0 "/></g></g></g></g><g clip-path="url(#957f57f27e)"><g fill="#ffffff" fill-opacity="1"><g transform="translate(25.632995, 7.391728)"><g><path d="M 0.140625 0 L 2.9375 -6.859375 L 3.078125 -6.859375 L 5.859375 0 L 4.375 0 L 4.109375 -0.71875 L 1.90625 -0.71875 L 1.65625 0 Z M 2.390625 -1.953125 L 3.609375 -1.953125 L 3.015625 -3.671875 Z M 2.390625 -1.953125 "/></g></g></g></g><g clip-path="url(#5ae83fd7eb)"><g fill="#ffffff" fill-opacity="1"><g transform="translate(32.948231, 7.391728)"><g><path d="M 2.0625 -3.609375 L 2.0625 0 L 0.734375 0 L 0.734375 -6.765625 L 1.09375 -6.765625 L 4.4375 -2.875 L 4.4375 -6.609375 L 5.765625 -6.609375 L 5.765625 0.140625 L 5.421875 0.140625 Z M 2.0625 -3.609375 "/></g></g></g></g><g clip-path="url(#20c702d016)"><g fill="#ffffff" fill-opacity="1"><g transform="translate(40.735669, 7.391728)"><g><path d="M 3.15625 0 L 1.828125 0 L 1.828125 -5.296875 L 0.1875 -5.296875 L 0.1875 -6.609375 L 4.8125 -6.609375 L 4.8125 -5.296875 L 3.15625 -5.296875 Z M 3.15625 0 "/></g></g></g></g><g clip-path="url(#0974ed2c58)"><g fill="#ffffff" fill-opacity="1"><g transform="translate(47.06947, 7.391728)"><g><path d="M 4.171875 0 L 0.734375 0 L 0.734375 -6.625 L 4.0625 -6.625 L 4.0625 -5.296875 L 2.0625 -5.296875 L 2.0625 -3.96875 L 3.8125 -3.96875 L 3.8125 -2.65625 L 2.0625 -2.65625 L 2.0625 -1.328125 L 4.171875 -1.328125 Z M 4.171875 0 "/></g></g></g></g></g></g><g transform="matrix(1, 0, 0, 1, 53, 81)"><g clip-path="url(#c805a8f5eb)"><g clip-path="url(#9146aeaf50)"><g fill="#ffffff" fill-opacity="1"><g transform="translate(0.669097, 6.207362)"><g><path d="M 4.875 -2.90625 C 4.925781 -2.894531 4.96875 -2.859375 5 -2.796875 C 5.03125 -2.742188 5.035156 -2.695312 5.015625 -2.65625 C 5.003906 -2.613281 4.957031 -2.609375 4.875 -2.640625 C 4.65625 -2.734375 4.421875 -2.789062 4.171875 -2.8125 C 3.929688 -2.84375 3.6875 -2.851562 3.4375 -2.84375 C 3.195312 -2.84375 2.957031 -2.835938 2.71875 -2.828125 C 2.65625 -2.828125 2.585938 -2.828125 2.515625 -2.828125 C 2.441406 -2.828125 2.375 -2.820312 2.3125 -2.8125 C 2.34375 -2.789062 2.363281 -2.757812 2.375 -2.71875 C 2.394531 -2.6875 2.398438 -2.65625 2.390625 -2.625 C 2.109375 -2.082031 1.875 -1.519531 1.6875 -0.9375 C 1.507812 -0.351562 1.378906 0.238281 1.296875 0.84375 C 1.285156 0.894531 1.265625 0.921875 1.234375 0.921875 C 1.203125 0.929688 1.164062 0.921875 1.125 0.890625 C 1.082031 0.867188 1.046875 0.835938 1.015625 0.796875 C 0.984375 0.753906 0.972656 0.71875 0.984375 0.6875 C 1.054688 0.0820312 1.179688 -0.507812 1.359375 -1.09375 C 1.546875 -1.6875 1.78125 -2.257812 2.0625 -2.8125 C 1.507812 -2.800781 0.957031 -2.769531 0.40625 -2.71875 C 0.375 -2.71875 0.335938 -2.734375 0.296875 -2.765625 C 0.265625 -2.796875 0.234375 -2.832031 0.203125 -2.875 C 0.179688 -2.914062 0.171875 -2.953125 0.171875 -2.984375 C 0.171875 -3.015625 0.195312 -3.03125 0.25 -3.03125 C 0.65625 -3.0625 1.0625 -3.085938 1.46875 -3.109375 C 1.875 -3.128906 2.285156 -3.140625 2.703125 -3.140625 C 2.941406 -3.148438 3.1875 -3.15625 3.4375 -3.15625 C 3.6875 -3.15625 3.929688 -3.140625 4.171875 -3.109375 C 4.410156 -3.078125 4.644531 -3.007812 4.875 -2.90625 Z M 4.875 -2.90625 "/></g></g></g></g><g fill="#ffffff" fill-opacity="1"><g transform="translate(3.454508, 6.207362)"><g><path d="M 1.09375 -0.78125 C 1.113281 -0.75 1.117188 -0.710938 1.109375 -0.671875 C 1.109375 -0.640625 1.085938 -0.625 1.046875 -0.625 C 1.015625 -0.625 0.984375 -0.628906 0.953125 -0.640625 C 0.921875 -0.660156 0.894531 -0.6875 0.875 -0.71875 C 0.832031 -0.71875 0.773438 -0.691406 0.703125 -0.640625 C 0.640625 -0.597656 0.597656 -0.566406 0.578125 -0.546875 C 0.535156 -0.515625 0.492188 -0.476562 0.453125 -0.4375 C 0.410156 -0.40625 0.375 -0.367188 0.34375 -0.328125 C 0.164062 -0.148438 0.03125 0.046875 -0.0625 0.265625 C -0.0820312 0.316406 -0.117188 0.328125 -0.171875 0.296875 C -0.234375 0.273438 -0.285156 0.234375 -0.328125 0.171875 C -0.367188 0.117188 -0.378906 0.078125 -0.359375 0.046875 C -0.296875 -0.128906 -0.226562 -0.300781 -0.15625 -0.46875 C -0.09375 -0.644531 -0.03125 -0.820312 0.03125 -1 C 0.0390625 -1.039062 0.0664062 -1.054688 0.109375 -1.046875 C 0.160156 -1.035156 0.207031 -1.007812 0.25 -0.96875 C 0.289062 -0.9375 0.320312 -0.898438 0.34375 -0.859375 C 0.46875 -0.953125 0.597656 -1.003906 0.734375 -1.015625 C 0.878906 -1.023438 1 -0.945312 1.09375 -0.78125 Z M 1.09375 -0.78125 "/></g></g></g><g fill="#ffffff" fill-opacity="1"><g transform="translate(5.092696, 6.207362)"><g><path d="M 1.125 -0.734375 C 1.15625 -0.765625 1.191406 -0.769531 1.234375 -0.75 C 1.285156 -0.738281 1.320312 -0.710938 1.34375 -0.671875 C 1.363281 -0.628906 1.351562 -0.59375 1.3125 -0.5625 C 1.21875 -0.476562 1.117188 -0.394531 1.015625 -0.3125 C 0.921875 -0.238281 0.820312 -0.164062 0.71875 -0.09375 C 0.632812 -0.0390625 0.539062 0.0078125 0.4375 0.0625 C 0.34375 0.125 0.25 0.171875 0.15625 0.203125 C 0.0703125 0.210938 0 0.195312 -0.0625 0.15625 C -0.132812 0.125 -0.191406 0.0703125 -0.234375 0 C -0.273438 -0.0625 -0.296875 -0.128906 -0.296875 -0.203125 C -0.304688 -0.335938 -0.269531 -0.472656 -0.1875 -0.609375 C -0.113281 -0.753906 -0.046875 -0.878906 0.015625 -0.984375 C 0.0351562 -1.023438 0.0664062 -1.039062 0.109375 -1.03125 C 0.148438 -1.019531 0.1875 -1 0.21875 -0.96875 C 0.257812 -0.9375 0.289062 -0.898438 0.3125 -0.859375 C 0.332031 -0.828125 0.332031 -0.796875 0.3125 -0.765625 C 0.269531 -0.679688 0.222656 -0.59375 0.171875 -0.5 C 0.128906 -0.40625 0.09375 -0.316406 0.0625 -0.234375 C 0.0507812 -0.210938 0.0390625 -0.1875 0.03125 -0.15625 C 0.113281 -0.164062 0.222656 -0.203125 0.359375 -0.265625 C 0.492188 -0.328125 0.628906 -0.398438 0.765625 -0.484375 C 0.910156 -0.566406 1.03125 -0.648438 1.125 -0.734375 Z M 0.59375 -1.34375 C 0.5625 -1.300781 0.515625 -1.289062 0.453125 -1.3125 C 0.398438 -1.332031 0.351562 -1.367188 0.3125 -1.421875 C 0.269531 -1.484375 0.257812 -1.535156 0.28125 -1.578125 C 0.3125 -1.648438 0.332031 -1.703125 0.34375 -1.734375 C 0.363281 -1.765625 0.375 -1.78125 0.375 -1.78125 C 0.40625 -1.8125 0.4375 -1.820312 0.46875 -1.8125 C 0.507812 -1.8125 0.546875 -1.796875 0.578125 -1.765625 C 0.617188 -1.734375 0.648438 -1.695312 0.671875 -1.65625 C 0.691406 -1.625 0.695312 -1.59375 0.6875 -1.5625 C 0.6875 -1.5625 0.679688 -1.546875 0.671875 -1.515625 C 0.660156 -1.492188 0.632812 -1.4375 0.59375 -1.34375 Z M 0.59375 -1.34375 "/></g></g></g><g clip-path="url(#c06e079dae)"><g fill="#ffffff" fill-opacity="1"><g transform="translate(6.452949, 6.207362)"><g><path d="M 1.34375 -1.140625 C 1.425781 -1.066406 1.472656 -0.976562 1.484375 -0.875 C 1.492188 -0.769531 1.476562 -0.671875 1.4375 -0.578125 C 1.394531 -0.453125 1.328125 -0.328125 1.234375 -0.203125 C 1.140625 -0.078125 1.03125 0.0234375 0.90625 0.109375 C 0.78125 0.203125 0.648438 0.25 0.515625 0.25 C 0.484375 0.25 0.445312 0.226562 0.40625 0.1875 C 0.363281 0.144531 0.332031 0.109375 0.3125 0.078125 C 0.132812 0.335938 -0.0195312 0.613281 -0.15625 0.90625 C -0.289062 1.195312 -0.410156 1.492188 -0.515625 1.796875 C -0.523438 1.835938 -0.546875 1.851562 -0.578125 1.84375 C -0.617188 1.84375 -0.660156 1.828125 -0.703125 1.796875 C -0.742188 1.765625 -0.773438 1.726562 -0.796875 1.6875 C -0.816406 1.644531 -0.820312 1.609375 -0.8125 1.578125 C -0.65625 1.117188 -0.5 0.660156 -0.34375 0.203125 C -0.195312 -0.253906 -0.0390625 -0.710938 0.125 -1.171875 C 0.132812 -1.210938 0.15625 -1.226562 0.1875 -1.21875 C 0.226562 -1.21875 0.265625 -1.203125 0.296875 -1.171875 C 0.335938 -1.140625 0.367188 -1.101562 0.390625 -1.0625 C 0.421875 -1.019531 0.429688 -0.984375 0.421875 -0.953125 C 0.398438 -0.890625 0.378906 -0.828125 0.359375 -0.765625 C 0.335938 -0.710938 0.316406 -0.65625 0.296875 -0.59375 C 0.359375 -0.675781 0.425781 -0.753906 0.5 -0.828125 C 0.570312 -0.910156 0.648438 -0.984375 0.734375 -1.046875 C 0.828125 -1.128906 0.925781 -1.191406 1.03125 -1.234375 C 1.132812 -1.273438 1.238281 -1.242188 1.34375 -1.140625 Z M 1.125 -0.765625 C 1.132812 -0.785156 1.140625 -0.804688 1.140625 -0.828125 C 1.148438 -0.847656 1.15625 -0.867188 1.15625 -0.890625 C 1.132812 -0.878906 1.117188 -0.867188 1.109375 -0.859375 C 1.097656 -0.847656 1.082031 -0.832031 1.0625 -0.8125 C 1.039062 -0.800781 1.023438 -0.789062 1.015625 -0.78125 C 0.941406 -0.71875 0.875 -0.648438 0.8125 -0.578125 C 0.75 -0.515625 0.6875 -0.445312 0.625 -0.375 C 0.550781 -0.289062 0.476562 -0.191406 0.40625 -0.078125 C 0.507812 -0.0859375 0.609375 -0.128906 0.703125 -0.203125 C 0.796875 -0.285156 0.878906 -0.378906 0.953125 -0.484375 C 1.023438 -0.585938 1.082031 -0.679688 1.125 -0.765625 Z M 1.125 -0.765625 "/></g></g></g></g><g fill="#ffffff" fill-opacity="1"><g transform="translate(8.481428, 6.207362)"><g><path d="M 1.078125 -0.796875 C 1.128906 -0.804688 1.171875 -0.796875 1.203125 -0.765625 C 1.234375 -0.734375 1.25 -0.691406 1.25 -0.640625 C 1.257812 -0.597656 1.238281 -0.566406 1.1875 -0.546875 C 0.96875 -0.460938 0.765625 -0.347656 0.578125 -0.203125 C 0.609375 -0.117188 0.617188 -0.03125 0.609375 0.0625 C 0.585938 0.15625 0.546875 0.25 0.484375 0.34375 C 0.421875 0.4375 0.34375 0.5 0.25 0.53125 C 0.164062 0.570312 0.0703125 0.550781 -0.03125 0.46875 C -0.132812 0.375 -0.179688 0.273438 -0.171875 0.171875 C -0.171875 0.078125 -0.132812 -0.015625 -0.0625 -0.109375 C 0.0078125 -0.210938 0.101562 -0.3125 0.21875 -0.40625 C 0.164062 -0.457031 0.117188 -0.503906 0.078125 -0.546875 C 0.0351562 -0.585938 0 -0.640625 -0.03125 -0.703125 C -0.0703125 -0.773438 -0.09375 -0.851562 -0.09375 -0.9375 C -0.09375 -1.019531 -0.0664062 -1.085938 -0.015625 -1.140625 C 0.0234375 -1.203125 0.0976562 -1.234375 0.203125 -1.234375 C 0.242188 -1.222656 0.285156 -1.203125 0.328125 -1.171875 C 0.367188 -1.140625 0.398438 -1.101562 0.421875 -1.0625 C 0.429688 -1.039062 0.429688 -1.007812 0.421875 -0.96875 C 0.421875 -0.925781 0.398438 -0.90625 0.359375 -0.90625 C 0.296875 -0.914062 0.253906 -0.898438 0.234375 -0.859375 C 0.222656 -0.828125 0.222656 -0.785156 0.234375 -0.734375 C 0.253906 -0.691406 0.273438 -0.65625 0.296875 -0.625 C 0.304688 -0.601562 0.316406 -0.582031 0.328125 -0.5625 C 0.347656 -0.550781 0.363281 -0.539062 0.375 -0.53125 C 0.53125 -0.601562 0.671875 -0.65625 0.796875 -0.6875 C 0.921875 -0.726562 1.015625 -0.765625 1.078125 -0.796875 Z M 1.078125 -0.796875 "/></g></g></g><g fill="#ffffff" fill-opacity="1"><g transform="translate(9.812111, 6.207362)"><g/></g></g><g fill="#ffffff" fill-opacity="1"><g transform="translate(12.242711, 6.207362)"><g><path d="M 2.21875 -0.765625 C 2.257812 -0.796875 2.300781 -0.796875 2.34375 -0.765625 C 2.394531 -0.742188 2.429688 -0.710938 2.453125 -0.671875 C 2.472656 -0.628906 2.46875 -0.59375 2.4375 -0.5625 C 2.300781 -0.4375 2.160156 -0.316406 2.015625 -0.203125 C 1.878906 -0.0859375 1.726562 0.015625 1.5625 0.109375 C 1.5 0.148438 1.421875 0.191406 1.328125 0.234375 C 1.242188 0.273438 1.160156 0.285156 1.078125 0.265625 C 0.984375 0.265625 0.898438 0.234375 0.828125 0.171875 C 0.765625 0.109375 0.722656 0.03125 0.703125 -0.0625 C 0.679688 -0.113281 0.671875 -0.164062 0.671875 -0.21875 C 0.679688 -0.269531 0.691406 -0.316406 0.703125 -0.359375 C 0.546875 -0.265625 0.394531 -0.148438 0.25 -0.015625 C 0.113281 0.117188 -0.0390625 0.222656 -0.21875 0.296875 C -0.257812 0.304688 -0.300781 0.296875 -0.34375 0.265625 C -0.394531 0.234375 -0.429688 0.191406 -0.453125 0.140625 C -0.484375 0.0976562 -0.492188 0.0625 -0.484375 0.03125 C -0.453125 -0.15625 -0.382812 -0.332031 -0.28125 -0.5 C -0.1875 -0.664062 -0.0664062 -0.800781 0.078125 -0.90625 C 0.191406 -1 0.316406 -1.035156 0.453125 -1.015625 C 0.585938 -0.992188 0.695312 -0.929688 0.78125 -0.828125 C 0.8125 -0.835938 0.84375 -0.847656 0.875 -0.859375 C 0.914062 -0.867188 0.960938 -0.851562 1.015625 -0.8125 C 1.046875 -0.789062 1.070312 -0.765625 1.09375 -0.734375 C 1.125 -0.703125 1.144531 -0.671875 1.15625 -0.640625 C 1.15625 -0.617188 1.148438 -0.597656 1.140625 -0.578125 C 1.140625 -0.535156 1.128906 -0.488281 1.109375 -0.4375 C 1.097656 -0.394531 1.082031 -0.351562 1.0625 -0.3125 C 1.050781 -0.269531 1.039062 -0.222656 1.03125 -0.171875 C 1.019531 -0.128906 1.007812 -0.0859375 1 -0.046875 C 1.007812 -0.046875 1.015625 -0.046875 1.015625 -0.046875 C 1.109375 -0.0546875 1.210938 -0.0859375 1.328125 -0.140625 C 1.441406 -0.191406 1.554688 -0.253906 1.671875 -0.328125 C 1.785156 -0.410156 1.890625 -0.488281 1.984375 -0.5625 C 2.085938 -0.644531 2.164062 -0.710938 2.21875 -0.765625 Z M 0.078125 -0.359375 C 0.160156 -0.421875 0.238281 -0.484375 0.3125 -0.546875 C 0.382812 -0.609375 0.460938 -0.664062 0.546875 -0.71875 C 0.535156 -0.71875 0.523438 -0.710938 0.515625 -0.703125 C 0.503906 -0.703125 0.492188 -0.703125 0.484375 -0.703125 C 0.453125 -0.691406 0.421875 -0.675781 0.390625 -0.65625 C 0.359375 -0.644531 0.332031 -0.628906 0.3125 -0.609375 C 0.269531 -0.566406 0.226562 -0.523438 0.1875 -0.484375 C 0.15625 -0.453125 0.125 -0.414062 0.09375 -0.375 C 0.09375 -0.363281 0.09375 -0.359375 0.09375 -0.359375 C 0.09375 -0.359375 0.0859375 -0.359375 0.078125 -0.359375 Z M 0.078125 -0.359375 "/></g></g></g><g fill="#ffffff" fill-opacity="1"><g transform="translate(14.696966, 6.207362)"><g><path d="M 2.375 -0.765625 C 2.414062 -0.785156 2.453125 -0.78125 2.484375 -0.75 C 2.523438 -0.71875 2.546875 -0.679688 2.546875 -0.640625 C 2.554688 -0.609375 2.535156 -0.578125 2.484375 -0.546875 C 2.328125 -0.472656 2.175781 -0.394531 2.03125 -0.3125 C 1.882812 -0.226562 1.738281 -0.140625 1.59375 -0.046875 C 1.507812 0.00390625 1.414062 0.0625 1.3125 0.125 C 1.21875 0.195312 1.117188 0.242188 1.015625 0.265625 C 0.910156 0.296875 0.816406 0.269531 0.734375 0.1875 C 0.660156 0.113281 0.632812 0.0234375 0.65625 -0.078125 C 0.65625 -0.140625 0.664062 -0.195312 0.6875 -0.25 C 0.71875 -0.3125 0.742188 -0.375 0.765625 -0.4375 C 0.429688 -0.238281 0.132812 0.00390625 -0.125 0.296875 C -0.15625 0.335938 -0.191406 0.34375 -0.234375 0.3125 C -0.285156 0.28125 -0.328125 0.238281 -0.359375 0.1875 C -0.398438 0.132812 -0.414062 0.0859375 -0.40625 0.046875 C -0.363281 -0.0976562 -0.304688 -0.242188 -0.234375 -0.390625 C -0.171875 -0.535156 -0.101562 -0.675781 -0.03125 -0.8125 C -0.0078125 -0.84375 0.0195312 -0.851562 0.0625 -0.84375 C 0.101562 -0.84375 0.140625 -0.828125 0.171875 -0.796875 C 0.210938 -0.765625 0.242188 -0.726562 0.265625 -0.6875 C 0.285156 -0.644531 0.285156 -0.613281 0.265625 -0.59375 C 0.265625 -0.582031 0.265625 -0.570312 0.265625 -0.5625 C 0.523438 -0.75 0.8125 -0.890625 1.125 -0.984375 C 1.175781 -0.992188 1.222656 -0.984375 1.265625 -0.953125 C 1.316406 -0.921875 1.351562 -0.878906 1.375 -0.828125 C 1.40625 -0.785156 1.40625 -0.738281 1.375 -0.6875 C 1.320312 -0.601562 1.273438 -0.519531 1.234375 -0.4375 C 1.191406 -0.351562 1.144531 -0.269531 1.09375 -0.1875 C 1.300781 -0.289062 1.515625 -0.390625 1.734375 -0.484375 C 1.953125 -0.578125 2.164062 -0.671875 2.375 -0.765625 Z M 2.375 -0.765625 "/></g></g></g><g fill="#ffffff" fill-opacity="1"><g transform="translate(17.281317, 6.207362)"><g><path d="M 2.34375 -3.390625 C 2.394531 -3.367188 2.441406 -3.332031 2.484375 -3.28125 C 2.535156 -3.226562 2.554688 -3.179688 2.546875 -3.140625 C 2.546875 -3.128906 2.546875 -3.125 2.546875 -3.125 C 2.234375 -2.53125 1.9375 -1.929688 1.65625 -1.328125 C 1.375 -0.722656 1.125 -0.101562 0.90625 0.53125 C 0.894531 0.570312 0.867188 0.585938 0.828125 0.578125 C 0.796875 0.566406 0.757812 0.546875 0.71875 0.515625 C 0.675781 0.492188 0.644531 0.460938 0.625 0.421875 C 0.601562 0.378906 0.597656 0.335938 0.609375 0.296875 C 0.648438 0.171875 0.691406 0.046875 0.734375 -0.078125 C 0.785156 -0.203125 0.832031 -0.328125 0.875 -0.453125 C 0.726562 -0.296875 0.566406 -0.148438 0.390625 -0.015625 C 0.210938 0.109375 0.015625 0.210938 -0.203125 0.296875 C -0.234375 0.304688 -0.269531 0.296875 -0.3125 0.265625 C -0.363281 0.234375 -0.398438 0.191406 -0.421875 0.140625 C -0.453125 0.0976562 -0.460938 0.0625 -0.453125 0.03125 C -0.410156 -0.15625 -0.34375 -0.332031 -0.25 -0.5 C -0.15625 -0.664062 -0.0351562 -0.800781 0.109375 -0.90625 C 0.210938 -0.988281 0.320312 -1.023438 0.4375 -1.015625 C 0.550781 -1.015625 0.65625 -0.972656 0.75 -0.890625 C 0.769531 -0.921875 0.789062 -0.945312 0.8125 -0.96875 C 1.09375 -1.332031 1.347656 -1.71875 1.578125 -2.125 C 1.804688 -2.53125 2.023438 -2.9375 2.234375 -3.34375 C 2.234375 -3.351562 2.234375 -3.359375 2.234375 -3.359375 C 2.253906 -3.378906 2.28125 -3.390625 2.3125 -3.390625 C 2.320312 -3.390625 2.332031 -3.390625 2.34375 -3.390625 Z M 0.03125 -0.21875 C 0.132812 -0.28125 0.234375 -0.351562 0.328125 -0.4375 C 0.421875 -0.519531 0.507812 -0.609375 0.59375 -0.703125 C 0.59375 -0.710938 0.585938 -0.71875 0.578125 -0.71875 C 0.566406 -0.71875 0.554688 -0.710938 0.546875 -0.703125 C 0.535156 -0.703125 0.523438 -0.703125 0.515625 -0.703125 C 0.484375 -0.691406 0.453125 -0.675781 0.421875 -0.65625 C 0.390625 -0.644531 0.363281 -0.628906 0.34375 -0.609375 C 0.300781 -0.566406 0.257812 -0.523438 0.21875 -0.484375 C 0.1875 -0.453125 0.15625 -0.414062 0.125 -0.375 C 0.09375 -0.320312 0.0625 -0.269531 0.03125 -0.21875 Z M 0.03125 -0.21875 "/></g></g></g><g fill="#ffffff" fill-opacity="1"><g transform="translate(19.386672, 6.207362)"><g/></g></g><g fill="#ffffff" fill-opacity="1"><g transform="translate(21.817272, 6.207362)"><g><path d="M 2.9375 -2.28125 C 2.976562 -2.257812 3.015625 -2.226562 3.046875 -2.1875 C 3.085938 -2.144531 3.109375 -2.101562 3.109375 -2.0625 C 3.097656 -2.007812 3.078125 -1.976562 3.046875 -1.96875 C 3.015625 -1.96875 2.984375 -1.976562 2.953125 -2 C 2.796875 -2.082031 2.628906 -2.132812 2.453125 -2.15625 C 2.285156 -2.1875 2.117188 -2.207031 1.953125 -2.21875 C 1.617188 -2.238281 1.28125 -2.25 0.9375 -2.25 C 0.9375 -2.25 0.929688 -2.25 0.921875 -2.25 C 0.742188 -1.863281 0.582031 -1.472656 0.4375 -1.078125 C 0.300781 -0.679688 0.1875 -0.28125 0.09375 0.125 C 0.0078125 0.53125 -0.0234375 0.945312 -0.015625 1.375 C -0.015625 1.414062 -0.03125 1.4375 -0.0625 1.4375 C -0.09375 1.445312 -0.128906 1.4375 -0.171875 1.40625 C -0.210938 1.382812 -0.25 1.351562 -0.28125 1.3125 C -0.3125 1.28125 -0.328125 1.242188 -0.328125 1.203125 C -0.335938 0.609375 -0.257812 0.0234375 -0.09375 -0.546875 C 0.0703125 -1.117188 0.273438 -1.679688 0.515625 -2.234375 C -0.0546875 -2.191406 -0.617188 -2.117188 -1.171875 -2.015625 C -1.210938 -2.003906 -1.253906 -2.015625 -1.296875 -2.046875 C -1.335938 -2.078125 -1.367188 -2.109375 -1.390625 -2.140625 C -1.421875 -2.179688 -1.4375 -2.21875 -1.4375 -2.25 C -1.445312 -2.289062 -1.4375 -2.316406 -1.40625 -2.328125 C -1.0625 -2.390625 -0.71875 -2.441406 -0.375 -2.484375 C -0.03125 -2.523438 0.3125 -2.546875 0.65625 -2.546875 C 0.71875 -2.691406 0.78125 -2.832031 0.84375 -2.96875 C 0.90625 -3.101562 0.972656 -3.238281 1.046875 -3.375 C 1.054688 -3.40625 1.082031 -3.414062 1.125 -3.40625 C 1.164062 -3.40625 1.203125 -3.390625 1.234375 -3.359375 C 1.273438 -3.328125 1.304688 -3.289062 1.328125 -3.25 C 1.359375 -3.207031 1.363281 -3.171875 1.34375 -3.140625 C 1.289062 -3.046875 1.242188 -2.945312 1.203125 -2.84375 C 1.160156 -2.75 1.113281 -2.65625 1.0625 -2.5625 C 1.269531 -2.5625 1.484375 -2.554688 1.703125 -2.546875 C 1.921875 -2.546875 2.132812 -2.523438 2.34375 -2.484375 C 2.5625 -2.441406 2.757812 -2.375 2.9375 -2.28125 Z M 2.9375 -2.28125 "/></g></g></g><g fill="#ffffff" fill-opacity="1"><g transform="translate(22.834539, 6.207362)"><g><path d="M 1.125 -0.734375 C 1.15625 -0.765625 1.191406 -0.769531 1.234375 -0.75 C 1.285156 -0.738281 1.320312 -0.710938 1.34375 -0.671875 C 1.363281 -0.628906 1.351562 -0.59375 1.3125 -0.5625 C 1.21875 -0.476562 1.117188 -0.394531 1.015625 -0.3125 C 0.921875 -0.238281 0.820312 -0.164062 0.71875 -0.09375 C 0.632812 -0.0390625 0.539062 0.0078125 0.4375 0.0625 C 0.34375 0.125 0.25 0.171875 0.15625 0.203125 C 0.0703125 0.210938 0 0.195312 -0.0625 0.15625 C -0.132812 0.125 -0.191406 0.0703125 -0.234375 0 C -0.273438 -0.0625 -0.296875 -0.128906 -0.296875 -0.203125 C -0.304688 -0.335938 -0.269531 -0.472656 -0.1875 -0.609375 C -0.113281 -0.753906 -0.046875 -0.878906 0.015625 -0.984375 C 0.0351562 -1.023438 0.0664062 -1.039062 0.109375 -1.03125 C 0.148438 -1.019531 0.1875 -1 0.21875 -0.96875 C 0.257812 -0.9375 0.289062 -0.898438 0.3125 -0.859375 C 0.332031 -0.828125 0.332031 -0.796875 0.3125 -0.765625 C 0.269531 -0.679688 0.222656 -0.59375 0.171875 -0.5 C 0.128906 -0.40625 0.09375 -0.316406 0.0625 -0.234375 C 0.0507812 -0.210938 0.0390625 -0.1875 0.03125 -0.15625 C 0.113281 -0.164062 0.222656 -0.203125 0.359375 -0.265625 C 0.492188 -0.328125 0.628906 -0.398438 0.765625 -0.484375 C 0.910156 -0.566406 1.03125 -0.648438 1.125 -0.734375 Z M 0.59375 -1.34375 C 0.5625 -1.300781 0.515625 -1.289062 0.453125 -1.3125 C 0.398438 -1.332031 0.351562 -1.367188 0.3125 -1.421875 C 0.269531 -1.484375 0.257812 -1.535156 0.28125 -1.578125 C 0.3125 -1.648438 0.332031 -1.703125 0.34375 -1.734375 C 0.363281 -1.765625 0.375 -1.78125 0.375 -1.78125 C 0.40625 -1.8125 0.4375 -1.820312 0.46875 -1.8125 C 0.507812 -1.8125 0.546875 -1.796875 0.578125 -1.765625 C 0.617188 -1.734375 0.648438 -1.695312 0.671875 -1.65625 C 0.691406 -1.625 0.695312 -1.59375 0.6875 -1.5625 C 0.6875 -1.5625 0.679688 -1.546875 0.671875 -1.515625 C 0.660156 -1.492188 0.632812 -1.4375 0.59375 -1.34375 Z M 0.59375 -1.34375 "/></g></g></g><g clip-path="url(#e61e7d08b2)"><g fill="#ffffff" fill-opacity="1"><g transform="translate(24.194792, 6.207362)"><g><path d="M 1.34375 -1.140625 C 1.425781 -1.066406 1.472656 -0.976562 1.484375 -0.875 C 1.492188 -0.769531 1.476562 -0.671875 1.4375 -0.578125 C 1.394531 -0.453125 1.328125 -0.328125 1.234375 -0.203125 C 1.140625 -0.078125 1.03125 0.0234375 0.90625 0.109375 C 0.78125 0.203125 0.648438 0.25 0.515625 0.25 C 0.484375 0.25 0.445312 0.226562 0.40625 0.1875 C 0.363281 0.144531 0.332031 0.109375 0.3125 0.078125 C 0.132812 0.335938 -0.0195312 0.613281 -0.15625 0.90625 C -0.289062 1.195312 -0.410156 1.492188 -0.515625 1.796875 C -0.523438 1.835938 -0.546875 1.851562 -0.578125 1.84375 C -0.617188 1.84375 -0.660156 1.828125 -0.703125 1.796875 C -0.742188 1.765625 -0.773438 1.726562 -0.796875 1.6875 C -0.816406 1.644531 -0.820312 1.609375 -0.8125 1.578125 C -0.65625 1.117188 -0.5 0.660156 -0.34375 0.203125 C -0.195312 -0.253906 -0.0390625 -0.710938 0.125 -1.171875 C 0.132812 -1.210938 0.15625 -1.226562 0.1875 -1.21875 C 0.226562 -1.21875 0.265625 -1.203125 0.296875 -1.171875 C 0.335938 -1.140625 0.367188 -1.101562 0.390625 -1.0625 C 0.421875 -1.019531 0.429688 -0.984375 0.421875 -0.953125 C 0.398438 -0.890625 0.378906 -0.828125 0.359375 -0.765625 C 0.335938 -0.710938 0.316406 -0.65625 0.296875 -0.59375 C 0.359375 -0.675781 0.425781 -0.753906 0.5 -0.828125 C 0.570312 -0.910156 0.648438 -0.984375 0.734375 -1.046875 C 0.828125 -1.128906 0.925781 -1.191406 1.03125 -1.234375 C 1.132812 -1.273438 1.238281 -1.242188 1.34375 -1.140625 Z M 1.125 -0.765625 C 1.132812 -0.785156 1.140625 -0.804688 1.140625 -0.828125 C 1.148438 -0.847656 1.15625 -0.867188 1.15625 -0.890625 C 1.132812 -0.878906 1.117188 -0.867188 1.109375 -0.859375 C 1.097656 -0.847656 1.082031 -0.832031 1.0625 -0.8125 C 1.039062 -0.800781 1.023438 -0.789062 1.015625 -0.78125 C 0.941406 -0.71875 0.875 -0.648438 0.8125 -0.578125 C 0.75 -0.515625 0.6875 -0.445312 0.625 -0.375 C 0.550781 -0.289062 0.476562 -0.191406 0.40625 -0.078125 C 0.507812 -0.0859375 0.609375 -0.128906 0.703125 -0.203125 C 0.796875 -0.285156 0.878906 -0.378906 0.953125 -0.484375 C 1.023438 -0.585938 1.082031 -0.679688 1.125 -0.765625 Z M 1.125 -0.765625 "/></g></g></g></g><g fill="#ffffff" fill-opacity="1"><g transform="translate(26.223271, 6.207362)"><g><path d="M 1.078125 -0.796875 C 1.128906 -0.804688 1.171875 -0.796875 1.203125 -0.765625 C 1.234375 -0.734375 1.25 -0.691406 1.25 -0.640625 C 1.257812 -0.597656 1.238281 -0.566406 1.1875 -0.546875 C 0.96875 -0.460938 0.765625 -0.347656 0.578125 -0.203125 C 0.609375 -0.117188 0.617188 -0.03125 0.609375 0.0625 C 0.585938 0.15625 0.546875 0.25 0.484375 0.34375 C 0.421875 0.4375 0.34375 0.5 0.25 0.53125 C 0.164062 0.570312 0.0703125 0.550781 -0.03125 0.46875 C -0.132812 0.375 -0.179688 0.273438 -0.171875 0.171875 C -0.171875 0.078125 -0.132812 -0.015625 -0.0625 -0.109375 C 0.0078125 -0.210938 0.101562 -0.3125 0.21875 -0.40625 C 0.164062 -0.457031 0.117188 -0.503906 0.078125 -0.546875 C 0.0351562 -0.585938 0 -0.640625 -0.03125 -0.703125 C -0.0703125 -0.773438 -0.09375 -0.851562 -0.09375 -0.9375 C -0.09375 -1.019531 -0.0664062 -1.085938 -0.015625 -1.140625 C 0.0234375 -1.203125 0.0976562 -1.234375 0.203125 -1.234375 C 0.242188 -1.222656 0.285156 -1.203125 0.328125 -1.171875 C 0.367188 -1.140625 0.398438 -1.101562 0.421875 -1.0625 C 0.429688 -1.039062 0.429688 -1.007812 0.421875 -0.96875 C 0.421875 -0.925781 0.398438 -0.90625 0.359375 -0.90625 C 0.296875 -0.914062 0.253906 -0.898438 0.234375 -0.859375 C 0.222656 -0.828125 0.222656 -0.785156 0.234375 -0.734375 C 0.253906 -0.691406 0.273438 -0.65625 0.296875 -0.625 C 0.304688 -0.601562 0.316406 -0.582031 0.328125 -0.5625 C 0.347656 -0.550781 0.363281 -0.539062 0.375 -0.53125 C 0.53125 -0.601562 0.671875 -0.65625 0.796875 -0.6875 C 0.921875 -0.726562 1.015625 -0.765625 1.078125 -0.796875 Z M 1.078125 -0.796875 "/></g></g></g><g clip-path="url(#beeae110be)"><g fill="#ffffff" fill-opacity="1"><g transform="translate(27.553954, 6.207362)"><g><path d="M 0.59375 -0.21875 C 0.59375 -0.207031 0.59375 -0.195312 0.59375 -0.1875 C 0.582031 -0.175781 0.570312 -0.164062 0.5625 -0.15625 C 0.519531 -0.132812 0.488281 -0.109375 0.46875 -0.078125 C 0.457031 -0.0546875 0.441406 -0.046875 0.421875 -0.046875 C 0.398438 -0.046875 0.382812 -0.046875 0.375 -0.046875 C 0.351562 -0.0546875 0.332031 -0.0664062 0.3125 -0.078125 C 0.289062 -0.0976562 0.269531 -0.113281 0.25 -0.125 C 0.21875 -0.164062 0.191406 -0.207031 0.171875 -0.25 C 0.171875 -0.28125 0.179688 -0.3125 0.203125 -0.34375 C 0.210938 -0.363281 0.226562 -0.382812 0.25 -0.40625 C 0.28125 -0.425781 0.304688 -0.445312 0.328125 -0.46875 C 0.347656 -0.46875 0.367188 -0.460938 0.390625 -0.453125 C 0.410156 -0.453125 0.425781 -0.445312 0.4375 -0.4375 C 0.457031 -0.425781 0.476562 -0.410156 0.5 -0.390625 C 0.519531 -0.378906 0.535156 -0.363281 0.546875 -0.34375 C 0.554688 -0.320312 0.566406 -0.300781 0.578125 -0.28125 C 0.585938 -0.257812 0.59375 -0.238281 0.59375 -0.21875 Z M 0.59375 -0.21875 "/></g></g></g></g></g></g><g transform="matrix(1, 0, 0, 1, 20, 46)"><g clip-path="url(#c28d95dd6b)"><g clip-path="url(#c8531ed48d)"><g fill="#ffffff" fill-opacity="1"><g transform="translate(0.568122, 20.06054)"><g><path d="M 0.40625 0 L 7.984375 -18.65625 L 8.359375 -18.65625 L 15.9375 0 L 11.875 0 L 11.15625 -1.9375 L 5.1875 -1.9375 L 4.484375 0 Z M 6.5 -5.3125 L 9.8125 -5.3125 L 8.1875 -10 Z M 6.5 -5.3125 "/></g></g></g></g><g fill="#ffffff" fill-opacity="1"><g transform="translate(20.452204, 20.06054)"><g><path d="M 7.375 -18 C 8.863281 -18 10.171875 -17.742188 11.296875 -17.234375 C 12.421875 -16.734375 13.359375 -16.054688 14.109375 -15.203125 C 14.859375 -14.347656 15.421875 -13.382812 15.796875 -12.3125 C 16.171875 -11.238281 16.359375 -10.132812 16.359375 -9 C 16.359375 -7.863281 16.171875 -6.757812 15.796875 -5.6875 C 15.421875 -4.613281 14.859375 -3.648438 14.109375 -2.796875 C 13.359375 -1.941406 12.421875 -1.257812 11.296875 -0.75 C 10.171875 -0.25 8.863281 0 7.375 0 L 2.015625 0 L 2.015625 -18 Z M 7.375 -14.390625 L 5.609375 -14.390625 L 5.609375 -3.59375 L 7.375 -3.59375 C 8.382812 -3.59375 9.242188 -3.785156 9.953125 -4.171875 C 10.671875 -4.554688 11.242188 -5.070312 11.671875 -5.71875 C 12.097656 -6.375 12.378906 -7.085938 12.515625 -7.859375 C 12.660156 -8.628906 12.660156 -9.394531 12.515625 -10.15625 C 12.378906 -10.914062 12.097656 -11.617188 11.671875 -12.265625 C 11.242188 -12.910156 10.671875 -13.425781 9.953125 -13.8125 C 9.242188 -14.195312 8.382812 -14.390625 7.375 -14.390625 Z M 7.375 -14.390625 "/></g></g></g><g fill="#ffffff" fill-opacity="1"><g transform="translate(41.619903, 20.06054)"><g><path d="M 10.265625 -10.375 L 17.375 -18.28125 L 18.5 -18.28125 L 18.5 0 L 14.84375 0 L 14.875 -10.046875 L 10.265625 -5.203125 L 5.65625 -10.046875 L 5.65625 0 L 2.015625 0 L 2.015625 -18.28125 L 3.171875 -18.28125 Z M 10.265625 -10.375 "/></g></g></g><g fill="#ffffff" fill-opacity="1"><g transform="translate(65.606523, 20.06054)"><g><path d="M 5.609375 0 L 2.015625 0 L 2.015625 -18 L 5.609375 -18 Z M 5.609375 0 "/></g></g></g><g fill="#ffffff" fill-opacity="1"><g transform="translate(76.706642, 20.06054)"><g><path d="M 5.609375 -9.796875 L 5.609375 0 L 2.015625 0 L 2.015625 -18.375 L 2.96875 -18.375 L 12.0625 -7.796875 L 12.0625 -17.96875 L 15.6875 -17.96875 L 15.6875 0.375 L 14.71875 0.375 Z M 5.609375 -9.796875 "/></g></g></g></g></g></svg>